<svg width="68" height="68" viewBox="0 0 68 68" fill="none" xmlns="http://www.w3.org/2000/svg">
    <path
        d="M59.4533 29.7267H38.22V8.49337C38.22 6.14921 36.3175 4.2467 33.9733 4.2467C31.6291 4.2467 29.7266 6.14921 29.7266 8.49337V29.7267H8.49331C6.14915 29.7267 4.24664 31.6292 4.24664 33.9734C4.24664 36.3175 6.14915 38.22 8.49331 38.22H29.7266V59.4534C29.7266 61.7975 31.6291 63.7 33.9733 63.7C36.3175 63.7 38.22 61.7975 38.22 59.4534V38.22H59.4533C61.7975 38.22 63.7 36.3175 63.7 33.9734C63.7 31.6292 61.7975 29.7267 59.4533 29.7267Z"
        fill="#ACB5BD" />
</svg>
    