<svg width="17" height="17" viewBox="0 0 17 17" fill="none" xmlns="http://www.w3.org/2000/svg">
    <path
        d="M14.4385 1.10832L14.4384 1.10843L8.84365 6.77403L3.25051 1.10845L3.25048 1.10843C3.02422 0.879303 2.71667 0.75 2.39532 0.75C2.07396 0.75 1.76641 0.879303 1.54015 1.10843C1.314 1.33745 1.1875 1.6474 1.1875 1.96994C1.1875 2.29248 1.314 2.60244 1.54015 2.83146L1.54018 2.83148L7.13933 8.49988L1.54018 14.1683L1.54015 14.1683C1.42815 14.2817 1.33947 14.4162 1.27902 14.564L1.51041 14.6586L1.27902 14.564C1.21857 14.7118 1.1875 14.87 1.1875 15.0298C1.1875 15.1896 1.21857 15.3479 1.27902 15.4956C1.33947 15.6434 1.42815 15.7779 1.54015 15.8913C1.76641 16.1204 2.07396 16.2498 2.39532 16.2498C2.55438 16.2498 2.71179 16.218 2.85856 16.1565C3.00533 16.0949 3.13847 16.0048 3.25048 15.8913L3.25051 15.8913L8.84365 10.2257L14.4384 15.8913L14.4385 15.8914C14.6648 16.1203 14.9723 16.2494 15.2935 16.2492C15.6147 16.249 15.922 16.1195 16.148 15.8904C16.3739 15.6613 16.5002 15.3514 16.5 15.0291C16.4998 14.7067 16.3732 14.397 16.1471 14.1683C16.147 14.1682 16.147 14.1682 16.147 14.1682L10.5479 8.49988L16.147 2.83157C16.259 2.71827 16.3477 2.58391 16.4082 2.43624C16.4687 2.28857 16.4999 2.13039 16.5 1.97069C16.5001 1.811 16.4691 1.65278 16.4088 1.50503C16.3485 1.35729 16.2599 1.22282 16.148 1.10938C16.0362 0.995937 15.9031 0.905753 15.7565 0.844131C15.6098 0.782506 15.4525 0.750695 15.2935 0.750596C15.1345 0.750497 14.9772 0.782112 14.8304 0.843555C14.6837 0.904995 14.5506 0.995015 14.4385 1.10832Z"
        fill="#393E46" stroke="#393E46" stroke-width="0.5" />
</svg>
    