<svg width="17" height="20" viewBox="0 0 17 20" fill="none" xmlns="http://www.w3.org/2000/svg">
    <path
        d="M12.372 11.3022L5.7782 11.3022C5.62472 11.3022 5.47275 11.2735 5.33096 11.2176C5.18916 11.1618 5.06033 11.08 4.9518 10.9768C4.84328 10.8736 4.75719 10.7511 4.69846 10.6163C4.63973 10.4815 4.6095 10.337 4.6095 10.1911C4.6095 10.0452 4.63973 9.90071 4.69846 9.76591C4.75719 9.6311 4.84328 9.50861 4.9518 9.40544C5.06033 9.30226 5.18916 9.22042 5.33096 9.16458C5.47275 9.10874 5.62472 9.08 5.7782 9.08L12.372 9.08L11.0607 7.83333C10.8416 7.62484 10.7185 7.34213 10.7187 7.04738C10.7188 6.75264 10.842 6.47001 11.0613 6.26167C11.2806 6.05332 11.578 5.93634 11.888 5.93644C12.198 5.93655 12.4953 6.05373 12.7145 6.26222L16.0195 9.40444C16.1286 9.50741 16.2152 9.62988 16.2743 9.7648C16.3334 9.89972 16.3638 10.0444 16.3638 10.1906C16.3638 10.3367 16.3334 10.4814 16.2743 10.6163C16.2152 10.7512 16.1286 10.8737 16.0195 10.9767L12.7156 14.1189C12.4965 14.3274 12.1992 14.4446 11.8892 14.4447C11.5792 14.4448 11.2818 14.3278 11.0625 14.1194C10.8432 13.9111 10.7199 13.6285 10.7198 13.3337C10.7197 13.039 10.8428 12.7563 11.0619 12.5478L12.372 11.3022ZM1.16884 20C0.858877 20 0.561613 19.8829 0.34244 19.6746C0.123264 19.4662 0.000133514 19.1836 0.000133514 18.8889L0.000133514 1.11111C0.000133514 0.816425 0.123264 0.53381 0.34244 0.325436C0.561613 0.117062 0.858877 0 1.16884 0C1.4788 0 1.77606 0.117062 1.99523 0.325436C2.21441 0.53381 2.33754 0.816425 2.33754 1.11111L2.33754 18.8889C2.33754 19.1836 2.21441 19.4662 1.99523 19.6746C1.77606 19.8829 1.4788 20 1.16884 20V20Z"
        fill="#212429" />
</svg>
    